<svg t="1687863803280" class="icon" viewBox="0 0 1024 1024" version="1.1" xmlns="http://www.w3.org/2000/svg" p-id="21936" width="200" height="200"><path d="M66.986667 392.746667C132.736 147.370667 385.834667 1.28 631.253333 66.986667c234.026667 62.72 399.786667 288.042667 337.792 519.381333A274.858667 274.858667 0 0 1 632.32 780.8l-79.36-21.248a27.050667 27.050667 0 0 0-33.109333 19.072 25.344 25.344 0 0 0 1.962666 18.474667l0.170667 0.426666 0.384 0.725334 0.213333 0.426666c5.930667 12.373333 17.621333 42.112 7.765334 78.933334a112.128 112.128 0 0 1-137.6 79.445333C147.370667 891.264 1.28 638.165333 66.986667 392.746667z m542.165333-243.328C409.258667 95.872 202.965333 214.954667 149.418667 414.848c-53.546667 199.893333 65.536 406.186667 265.429333 459.733333a26.794667 26.794667 0 0 0 33.066667-19.072 28.885333 28.885333 0 0 0-2.304-20.053333 110.677333 110.677333 0 0 1-8.192-78.933333 112.384 112.384 0 0 1 137.6-79.445334l79.402666 21.248a189.525333 189.525333 0 0 0 232.192-134.016c47.018667-175.488-77.866667-361.386667-277.461333-414.890666z" fill="#75C82B" p-id="21937"></path><path d="M705.450667 522.282667a42.666667 42.666667 0 0 1 52.266666-30.165334l22.442667 6.016a42.666667 42.666667 0 0 1-22.101333 82.432l-22.442667-6.016a42.666667 42.666667 0 0 1-30.165333-52.266666zM620.117333 308.949333a42.666667 42.666667 0 0 1 52.266667-30.165333l22.442667 6.016a42.666667 42.666667 0 1 1-22.101334 82.432l-22.442666-6.016a42.666667 42.666667 0 0 1-30.165334-52.266667zM405.674667 238.933333a42.666667 42.666667 0 0 1 52.266666-30.165333l22.442667 6.016a42.666667 42.666667 0 0 1-22.101333 82.432l-22.442667-5.973333A42.666667 42.666667 0 0 1 405.674667 238.933333zM235.008 409.6a42.666667 42.666667 0 0 1 52.266667-30.165333l22.442666 6.016a42.666667 42.666667 0 1 1-22.101333 82.432l-22.442667-5.973334A42.666667 42.666667 0 0 1 235.008 409.6z" fill="#75C82B" p-id="21938"></path></svg>